<svg width="27" height="27" viewBox="0 0 27 27" fill="none" xmlns="http://www.w3.org/2000/svg">
<path d="M13.567 26.34C11.0179 26.3402 8.5261 25.5845 6.4065 24.1684C4.287 22.7524 2.6349 20.7396 1.6593 18.3847C0.683697 16.0297 0.428297 13.4384 0.925497 10.9383C1.4227 8.4382 2.6501 6.1416 4.4525 4.3391C6.2549 2.5366 8.5512 1.309 11.0513 0.811698C13.5513 0.314298 16.1427 0.569499 18.4978 1.5449C20.8528 2.5204 22.8657 4.1722 24.2819 6.2917C25.6981 8.4111 26.454 10.9029 26.454 13.452C26.4508 16.8689 25.0921 20.1451 22.676 22.5613C20.26 24.9776 16.9839 26.3365 13.567 26.34ZM13.567 4.84C11.8637 4.84 10.1987 5.3451 8.7824 6.2914C7.3662 7.2377 6.2624 8.5826 5.6106 10.1563C4.9587 11.7299 4.7881 13.4615 5.1204 15.1321C5.4527 16.8026 6.273 18.3372 7.4774 19.5416C8.6818 20.746 10.2163 21.5662 11.8869 21.8985C13.5574 22.2308 15.2891 22.0602 16.8627 21.4084C18.4363 20.7566 19.7813 19.6528 20.7276 18.2365C21.6739 16.8203 22.179 15.1553 22.179 13.452C22.1763 11.1687 21.2681 8.9798 19.6536 7.3653C18.0392 5.7508 15.8502 4.8426 13.567 4.84Z" fill="black"/>
</svg>
