<svg width="21" height="21" viewBox="0 0 21 21" fill="none" xmlns="http://www.w3.org/2000/svg">
<path fill-rule="evenodd" clip-rule="evenodd" d="M14.5277 9.72469e-06H6.7524C5.05539 -0.0029779 3.42673 0.682539 2.22455 1.90525C1.02237 3.12795 0.345385 4.788 0.342047 6.52037V14.4569C0.340906 15.3166 0.50628 16.1674 0.828052 16.9619C1.14982 17.7563 1.62134 18.4782 2.21686 19.0861C2.81238 19.694 3.52025 20.1763 4.29853 20.5047C5.07681 20.833 5.91026 21.0013 6.7524 21H14.5277C16.2245 20.9964 17.8503 20.3053 19.0479 19.0783C20.2455 17.8512 20.9169 16.189 20.9142 14.4569V6.52037C20.9113 4.79216 20.238 3.13518 19.041 1.9131C17.844 0.691009 16.2206 0.00319766 14.5277 9.72469e-06ZM16.8655 4.93697C16.8593 4.72797 16.7733 4.52992 16.6263 4.38432C16.4793 4.23875 16.2828 4.15737 16.078 4.15746C15.8724 4.15746 15.6751 4.24062 15.5297 4.38904C15.3843 4.53744 15.3021 4.73887 15.3021 4.94874C15.3021 5.15865 15.3843 5.36007 15.5297 5.50847C15.6751 5.65687 15.8724 5.74004 16.078 5.74004C16.286 5.73777 16.4847 5.65307 16.6317 5.50296C16.7787 5.35286 16.8624 5.14924 16.8647 4.93697H16.8655ZM10.6404 5.29182C9.45056 5.2815 8.29376 5.69314 7.36834 6.45676C6.44297 7.22041 5.80611 8.28848 5.56659 9.47831C5.3271 10.6681 5.50029 11.906 6.05567 12.9803C6.6111 14.0545 7.5144 14.8988 8.61184 15.3683C9.70924 15.8378 10.9326 15.9033 12.0723 15.5543C13.212 15.2053 14.1976 14.463 14.8607 13.4544C15.5238 12.4458 15.8229 11.2336 15.7074 10.0247C15.5918 8.81571 15.0686 7.6853 14.227 6.82653C13.2773 5.85029 11.9874 5.2983 10.6397 5.29182H10.6404ZM10.6404 13.8932C10.0897 13.8995 9.54583 13.7661 9.05786 13.5054C8.56984 13.2448 8.1525 12.8648 7.84359 12.3994C7.53471 11.9339 7.34379 11.3972 7.2876 10.838C7.23146 10.2787 7.3122 9.7139 7.52216 9.19411C7.73211 8.67436 8.06507 8.2159 8.49111 7.8596C8.91711 7.5033 9.42321 7.26018 9.96373 7.15229C10.5042 7.04441 11.0625 7.07556 11.5886 7.24181C12.1147 7.40801 12.5919 7.70455 12.9782 8.1053C13.2932 8.41387 13.5438 8.78408 13.7149 9.19411C13.8859 9.60413 13.9736 10.0453 13.9733 10.491C13.9663 11.391 13.6132 12.252 12.9897 12.8884C12.3663 13.5249 11.5229 13.8861 10.6412 13.8932H10.6404ZM19.1555 14.46C19.1529 15.7143 18.6657 16.9165 17.799 17.8058C16.9324 18.695 15.7564 19.1987 14.5277 19.2078H6.7524C5.5197 19.2046 4.3389 18.7034 3.46725 17.8136C2.5956 16.9238 2.10463 15.7184 2.10151 14.46V6.52352C2.11084 5.26916 2.604 4.0689 3.47494 3.18404C4.34589 2.29918 5.52364 1.80126 6.7524 1.7977H14.5277C15.7525 1.80717 16.9246 2.30761 17.7906 3.19189C18.6565 4.07616 19.1467 5.27319 19.1555 6.52352V14.46Z" fill="black"/>
</svg>
