<svg width="21" height="21" viewBox="0 0 21 21" fill="none" xmlns="http://www.w3.org/2000/svg">
<path fill-rule="evenodd" clip-rule="evenodd" d="M6.5899 20.1567C4.13459 19.0866 2.18294 17.0838 1.14764 14.5718C0.112342 12.0598 0.0744575 9.23519 1.04188 6.69511C2.0093 4.15499 3.9063 2.09842 6.3319 0.959988C8.75753 -0.17845 11.5219 -0.30953 14.0404 0.594462C16.559 1.49845 18.6345 3.36667 19.8284 5.80427C21.0223 8.24189 21.2411 11.0579 20.4384 13.6571C19.6357 16.2563 17.8745 18.4351 15.5269 19.7329C13.1794 21.0308 10.4293 21.346 7.85826 20.612C8.18753 19.7961 8.56326 18.9801 8.82143 18.1422C9.10356 17.3026 9.26762 16.4157 9.47942 15.6006C9.64403 15.7442 9.8317 15.9123 10.0195 16.0559C10.466 16.4107 10.9909 16.6486 11.5482 16.7489C12.1054 16.8492 12.6781 16.8087 13.2166 16.6311C14.387 16.3534 15.411 15.6337 16.0827 14.6166C17.2495 12.9329 17.7298 10.8521 17.4217 8.81388C17.3028 7.80828 16.9126 6.85624 16.2946 6.06384C15.6766 5.27144 14.8548 4.66992 13.9214 4.32633C12.5786 3.71778 11.0905 3.52481 9.64137 3.77136C8.1922 4.01792 6.84597 4.69319 5.76915 5.7134C4.87369 6.52916 4.24329 7.60436 3.96223 8.79546C3.68117 9.98659 3.76262 11.2369 4.196 12.3794C4.47833 13.1217 5.02317 13.7291 5.72273 14.0814C6.09837 14.2731 6.2632 14.2013 6.38072 13.7934C6.37956 13.7597 6.3874 13.7264 6.40373 13.6971C6.51327 13.4428 6.55159 13.1624 6.51417 12.8873C6.47676 12.6121 6.36503 12.3529 6.1918 12.1387C5.90564 11.6606 5.73533 11.1198 5.69462 10.5611C5.6539 10.0023 5.74395 9.44173 5.95763 8.92566C6.2527 7.92479 6.85437 7.04699 7.67445 6.42119C8.49447 5.79539 9.48979 5.45466 10.5136 5.44906C11.0908 5.44167 11.6668 5.50607 12.2288 5.64077C13.0041 5.80873 13.7016 6.23801 14.209 6.85956C14.7164 7.48112 15.0042 8.25886 15.0262 9.06763C15.1357 10.4266 14.893 11.7912 14.3222 13.024C14.044 13.65 13.6156 14.1944 13.0768 14.6069C12.8249 14.7892 12.5371 14.9136 12.2335 14.9715C11.9299 15.0294 11.6177 15.0194 11.3183 14.9422C11.1164 14.8945 10.9261 14.806 10.7583 14.6818C10.5905 14.5577 10.4487 14.4004 10.3415 14.2194C10.2343 14.0383 10.1636 13.8372 10.1339 13.6278C10.1041 13.4184 10.1158 13.205 10.1682 13.0003C10.4032 12.0652 10.6845 11.1539 10.9195 10.2425C11.0152 9.84235 11.0548 9.43027 11.0369 9.01867C11.0259 8.77844 10.9527 8.54542 10.825 8.34326C10.6974 8.14109 10.5197 7.97694 10.3099 7.86747C10.1001 7.75797 9.86573 7.707 9.63044 7.71978C9.39516 7.73251 9.16737 7.8085 8.9701 7.94001C8.66809 8.12398 8.41004 8.37445 8.21496 8.67313C8.01983 8.97181 7.8925 9.31114 7.84223 9.66648C7.70869 10.3959 7.76552 11.1483 8.00693 11.8482C8.05009 12.0043 8.05853 12.1683 8.03115 12.328C7.58436 14.2462 7.13822 16.1399 6.73857 18.0345C6.65685 18.6065 6.61004 19.1831 6.59809 19.761L6.5899 20.1567Z" fill="black"/>
</svg>
